<svg xmlns="http://www.w3.org/2000/svg" width="28" height="28" viewBox="0 0 28 28" fill="none">
<path d="M2.8285 3.64772C2.8285 3.64772 0.40187 14.238 2.8285 25.0176C2.8285 25.0176 13.5197 27.158 25.2727 25.0176C25.2727 25.0176 27.4716 14.1507 25.2727 3.65595C25.2727 3.64772 16.0217 1.34592 2.8285 3.64772Z" fill="#1DB954"/>
<path d="M18.5722 19.0697H15.3989L14.4468 14.9073C14.4023 14.7328 14.3309 14.3865 14.2327 13.8684C14.1345 13.3503 14.0632 12.9167 14.0187 12.5677C13.9827 12.8509 13.9228 13.2032 13.8474 13.6231C13.7721 14.0429 13.6762 14.4299 13.6059 14.7756C13.5357 15.1214 13.1967 16.5555 12.6178 19.0565H9.4394L6.97852 9.50684H9.56784L10.6536 14.3064C10.8979 15.3656 11.0657 16.2086 11.1571 16.8354C11.2153 16.3963 11.3203 15.7926 11.4722 15.0242C11.624 14.2559 11.7656 13.6247 11.8969 13.1308L12.7737 9.51671H15.2551L16.1114 13.1308C16.2569 13.7087 16.4042 14.3788 16.5532 15.1362C16.7022 15.8936 16.8032 16.4534 16.8529 16.8354C16.9065 16.3513 17.0664 15.5116 17.3324 14.3162L18.4284 9.51671H21.0177L18.5722 19.0697Z" fill="white"/>
</svg>
